<?xml version="1.0" standalone="no"?>
<svg xmlns:xlink="http://www.w3.org/1999/xlink" id="wave" style="transform:rotate(0deg); transition: 0.3s" viewBox="0 0 1440 150" version="1.1" xmlns="http://www.w3.org/2000/svg"><defs><linearGradient id="sw-gradient-0" x1="0" x2="0" y1="1" y2="0"><stop stop-color="rgba(5, 4, 4, 1)" offset="0%"/><stop stop-color="rgba(238, 236, 233, 1)" offset="100%"/></linearGradient></defs><path style="transform:translate(0, 0px); opacity:1" fill="url(#sw-gradient-0)" d="M0,0L10,10C20,20,40,40,60,60C80,80,100,100,120,107.5C140,115,160,110,180,107.5C200,105,220,105,240,100C260,95,280,85,300,80C320,75,340,75,360,70C380,65,400,55,420,45C440,35,460,25,480,27.5C500,30,520,45,540,65C560,85,580,110,600,117.5C620,125,640,115,660,112.5C680,110,700,115,720,115C740,115,760,110,780,95C800,80,820,55,840,50C860,45,880,60,900,55C920,50,940,25,960,20C980,15,1000,30,1020,32.5C1040,35,1060,25,1080,20C1100,15,1120,15,1140,32.5C1160,50,1180,85,1200,105C1220,125,1240,130,1260,125C1280,120,1300,105,1320,85C1340,65,1360,40,1380,32.5C1400,25,1420,35,1430,40L1440,45L1440,150L1430,150C1420,150,1400,150,1380,150C1360,150,1340,150,1320,150C1300,150,1280,150,1260,150C1240,150,1220,150,1200,150C1180,150,1160,150,1140,150C1120,150,1100,150,1080,150C1060,150,1040,150,1020,150C1000,150,980,150,960,150C940,150,920,150,900,150C880,150,860,150,840,150C820,150,800,150,780,150C760,150,740,150,720,150C700,150,680,150,660,150C640,150,620,150,600,150C580,150,560,150,540,150C520,150,500,150,480,150C460,150,440,150,420,150C400,150,380,150,360,150C340,150,320,150,300,150C280,150,260,150,240,150C220,150,200,150,180,150C160,150,140,150,120,150C100,150,80,150,60,150C40,150,20,150,10,150L0,150Z"/></svg>